# xmcd
#
# Track frame offsets:
#        150
#        22847
#        47200
#        63902
#        86272
#        105740
#        125062
#        140967
#        167770
#        201255
#        220895
#        239642
#        261002
#        275990
#        301570
#        316687
#        335487
#
# Disc length: 4550 seconds
#
# Revision: 0
# Processed by: cddbd v1.5.1PL2 Copyright (c) Steve Scherf et al.
# Submitted via: ExactAudioCopy v0.95a5
#
DISCID=fb11c411
DTITLE=Various Artist - The Prince's Trust Concert 1987
DYEAR=1987
DGENRE=Rock
TTITLE0=Mark King and Mike Lindup/Running In The Family
TTITLE1=Midge Ure/If I Was
TTITLE2=Phil Collins and Paul Young/You've Lost That Lovin' Feelin'
TTITLE3=Ben E. King/Stand By Me
TTITLE4=Curiosity Killed The Cat/Misfit
TTITLE5=Eric Clapton/Wonderful Tonight
TTITLE6=Go West/Don't Look Down
TTITLE7=Alison Moyet/Invisible
TTITLE8=Spandau Ballet/Through The Barricades
TTITLE9=Labi Siffre/So Strong
TTITLE10=Bryan Adams/Run To You
TTITLE11=Elton John/Saturday Night's Alright
TTITLE12=Dave Edmunds and Bryan Adams/The Wanderer
TTITLE13=George Harrison/While My Guitar Gently Weeps
TTITLE14=George Harrison/Here Comes The Sun
TTITLE15=Ringo Starr/With A Little Help From My Friends
TTITLE16=Buddy Curtess and The Grasshoppers/God Save The Queen
EXTD=
EXTT0=
EXTT1=
EXTT2=
EXTT3=
EXTT4=
EXTT5=
EXTT6=
EXTT7=
EXTT8=
EXTT9=
EXTT10=
EXTT11=
EXTT12=
EXTT13=
EXTT14=
EXTT15=
EXTT16=
PLAYORDER=
